<svg width="34" height="25" viewBox="0 0 34 25" fill="none" xmlns="http://www.w3.org/2000/svg">
<path opacity="0.2" d="M33.5156 7.53906C33.5156 11.5755 32.1745 15 29.4922 17.8125C26.8099 20.651 22.8385 22.7734 17.5781 24.1797V20.5859C19.2188 20.0911 20.625 19.4531 21.7969 18.6719C22.9427 17.8906 23.8542 16.9922 24.5312 15.9766C25.1823 14.987 25.5078 14.0365 25.5078 13.125C25.5078 12.526 25.3125 12.0182 24.9219 11.6016C24.5052 11.2109 23.6979 10.7031 22.5 10.0781C20.4948 9.01042 19.4922 7.39583 19.4922 5.23438C19.4922 3.64583 20.0781 2.36979 21.25 1.40625C22.3958 0.46875 23.9193 0 25.8203 0C28.0339 0 29.8698 0.703125 31.3281 2.10938C32.7865 3.54167 33.5156 5.35156 33.5156 7.53906ZM15.9375 7.53906C15.9375 11.5755 14.5964 15 11.9141 17.8125C9.23177 20.651 5.26042 22.7734 0 24.1797V20.5859C1.64062 20.0911 3.04688 19.4531 4.21875 18.6719C5.36458 17.8906 6.27604 16.9922 6.95312 15.9766C7.60417 14.987 7.92969 14.0365 7.92969 13.125C7.92969 12.526 7.73438 12.0182 7.34375 11.6016C6.92708 11.2109 6.11979 10.7031 4.92188 10.0781C2.91667 9.01042 1.91406 7.39583 1.91406 5.23438C1.91406 3.64583 2.5 2.36979 3.67188 1.40625C4.81771 0.46875 6.34115 0 8.24219 0C10.4557 0 12.2917 0.703125 13.75 2.10938C15.2083 3.54167 15.9375 5.35156 15.9375 7.53906Z" fill="#FF8C00"/>
</svg>
