<svg width="20" height="28" viewBox="0 0 20 28" fill="none" xmlns="http://www.w3.org/2000/svg">
<circle cx="9.63636" cy="15.234" r="8.88636" stroke="#E3E2E0" stroke-width="1.5"/>
<path d="M6.23847 15.15C6.23847 14.3567 6.39714 13.666 6.71447 13.078C7.03181 12.4807 7.47047 12.0187 8.03047 11.692C8.59981 11.3653 9.24847 11.202 9.97647 11.202C10.9191 11.202 11.6938 11.4307 12.3005 11.888C12.9165 12.3453 13.3225 12.98 13.5185 13.792H12.1465C12.0158 13.3253 11.7591 12.9567 11.3765 12.686C11.0031 12.4153 10.5365 12.28 9.97647 12.28C9.24847 12.28 8.66047 12.532 8.21247 13.036C7.76447 13.5307 7.54047 14.2353 7.54047 15.15C7.54047 16.074 7.76447 16.788 8.21247 17.292C8.66047 17.796 9.24847 18.048 9.97647 18.048C10.5365 18.048 11.0031 17.9173 11.3765 17.656C11.7498 17.3947 12.0065 17.0213 12.1465 16.536H13.5185C13.3131 17.32 12.9025 17.95 12.2865 18.426C11.6705 18.8927 10.9005 19.126 9.97647 19.126C9.24847 19.126 8.59981 18.9627 8.03047 18.636C7.47047 18.3093 7.03181 17.8473 6.71447 17.25C6.39714 16.6527 6.23847 15.9527 6.23847 15.15Z" fill="#E3E2E0"/>
</svg>
